<?xml version="1.0" encoding="UTF-8"?>
<svg id="Layer_2" data-name="Layer 2" xmlns="http://www.w3.org/2000/svg" viewBox="0 0 937.8 1024">
  <defs>
    <style>
      .cls-1 {
        fill: #e5a170;
      }

      .cls-2 {
        fill: #dfdfde;
      }

      .cls-3 {
        fill: #e2a98a;
      }

      .cls-4 {
        fill: #e0cac2;
      }

      .cls-5 {
        fill: #e15032;
      }

      .cls-6 {
        fill: #e95b32;
      }

      .cls-7 {
        fill: #e69e69;
      }

      .cls-8 {
        fill: #e1bcae;
      }

      .cls-9 {
        fill: #ea6c35;
      }

      .cls-10 {
        fill: #db4631;
      }

      .cls-11 {
        fill: #e4a47a;
      }

      .cls-12 {
        fill: #e1b5a4;
      }

      .cls-13 {
        fill: #cb2e30;
      }

      .cls-14 {
        fill: #cf3430;
      }

      .cls-15 {
        fill: #eb5e32;
      }

      .cls-16 {
        fill: #da4531;
      }

      .cls-17 {
        fill: #e0d7d4;
      }

      .cls-18 {
        fill: #e0c4ba;
      }

      .cls-19 {
        fill: #e75832;
      }

      .cls-20 {
        fill: #eb813a;
      }

      .cls-21 {
        fill: #e04d31;
      }

      .cls-22 {
        fill: #e0d3cf;
      }

      .cls-23 {
        fill: #d74030;
      }

      .cls-24 {
        fill: #e1ad96;
      }

      .cls-25 {
        fill: #e85d32;
      }

      .cls-26 {
        fill: #d33a31;
      }

      .cls-27 {
        fill: #717577;
      }

      .cls-28 {
        fill: #474b4e;
      }
    </style>
  </defs>
  <g id="Layer_1-2" data-name="Layer 1">
    <path class="cls-28" d="M669.02,568.96c11.05,14.65,21.75,36.82,31,53,7,12.24,12.01,22.81,20,35,8.58,13.1,19.04,30.74,36.58,32.91,2.97.37,10.9-.58,13.42-1.91l166.86,220.62c5.51,10.89-15.28,22.03-23.19,26.53-28.87,16.45-64.15,27.29-95.91,37.09-98.04,30.25-196.18,48.75-299.35,50.69l-2.42,1.04h-20c-3.91-1.69-11.3-1.67-15,0h-24c-5.01-1.67-12.92-1.68-18,0-6.31-.17-12.7.23-19,0-130.95-4.84-266.18-23.08-382.02-87.47-8.78-4.88-37.1-21.37-37.98-31.52,13.79,3.87,24.46-1.66,36.68-6.82,49.96-21.13,93.11-54,140.96-76.03,9.61-4.43,42.17-20.36,41.42.37-.7,19.34-28.01,59.63-36.23,79.81-5.25,12.88-7.41,15.85,7.95,18.4,34.57,5.72,99.65,1.13,135.72-2.73,33.72-3.61,42.6-11.68,67.98-32.02,49.22-39.45,98.67-88.33,141.01-134.98,5.92-6.52,21.47-20.38,24.42-27.58,4.21-10.29-3.35-9.02-11.28-8.28-20.21,1.89-59.02,16.39-78.87,24.13-26.87,10.48-70.69,35.13-97.51,38.5-11.69,1.47-3.72-7.44-.21-12.22,33.37-32.79,68.41-63.97,102.97-95.52.66,3.64,3.79,12.49,5.81,15.69,8.89,14.17,30.64,11.13,42.21,1.82,15.26-12.29,21.71-31.39,26.99-49.51,1.82-6.23,2.74-12.91,5-19,2.05-5.52,5.24-12.57,11.74-13.76,12.31-2.26,16.17,3.99,21.26,13.76,9.19,17.62,18.15,37.83,27,56,6.11,12.53,11.79,25.43,18,38,14.63,29.58,28.06,61.57,46.58,88.91,10.7,15.79,21.95,27.03,42.79,24.96,41.4-4.12,17.85-49.21,5.8-70.54-13.45-23.81-29.78-45.98-43.17-70.32-6.64-12.06-13.21-24.5-19-37-8.76-18.91-17.18-39.68-22-60-2.01-8.48-7.85-33.26,5.59-34.98,5.99-.76,15.87,10.29,19.41,14.98Z"/>
    <path class="cls-6" d="M678.02,0c14.41,4.17,20.84,15.63,15,30-6.7,16.5-37.89,20.47-54,28-.81-4.03-5.86-6.29-9.08-8.42-9.79-6.46-20.54-11.22-30.92-16.58,1.62-1.31,4.4-4.81,6-6,17.01-12.63,37.64-21.46,58-27h15Z"/>
    <path class="cls-27" d="M301.02,583.96c.43,1.81.2,8.31-.08,10.42-1.94,14.36-18.05,25.44-27.92,34.58-10.58,9.81-20.11,17.31-29,29-2.59,3.41-5.43,6.26-7.19,10.31-6.34,14.58-.13,35.52,17.65,36.73,16.03,1.09,24.26-9.35,34.54-19.04,10.18-9.6,18.08-18.24,27-29,12.76-15.39,21.6-30.1,33-46,4.52-6.3,12.74-17.99,18-23,1.33-1.27,9.53-7.35,11.33-8.17,13.74-6.27,17.69,5.46,16.67,17.17-.36,4.2-3.3,13.99-5,18s-6.53,12.22-9,16c-8.54,13.06-25.14,31.52-36,43-10,10.57-21.6,22.34-32,32-19.52,18.13-64.29,49.17-72.28,74.22-5.39,16.91,7.03,25.04,22.82,23.81,31.87-2.47,78.03-55.98,99.46-79.03,10.35-11.12,20.06-22.92,30-34,11.93-13.29,28.49-34.63,42-45,9.96-7.64,30.2-15.39,37,0,3.26,7.38,1.59,16.22,3,24-34.56,31.55-69.6,62.73-102.97,95.52-3.52,4.78-11.49,13.69.21,12.22,26.82-3.37,70.65-28.02,97.51-38.5,19.85-7.74,58.66-22.24,78.87-24.13,7.93-.74,15.49-2.01,11.28,8.28-2.95,7.2-18.5,21.06-24.42,27.58-42.34,46.65-91.8,95.53-141.01,134.98-25.38,20.34-34.26,28.41-67.98,32.02-36.07,3.86-101.15,8.45-135.72,2.73-15.36-2.54-13.2-5.51-7.95-18.4,8.22-20.18,35.53-60.47,36.23-79.81.75-20.74-31.8-4.8-41.42-.37-47.86,22.03-91,54.9-140.96,76.03-12.22,5.17-22.89,10.69-36.68,6.82-.55-6.38,9.93-19.12,14.03-24.47,27.36-35.7,60.74-68.48,88.93-104.06,40.28-50.84,76.65-104.92,116.04-156.45.15.34,5.23,4,6.1,4.39,10.96,4.91,21.22-3.62,28.9-10.39,3.06-2.7,6.36-5.35,8.97-8.53,5.64-6.86,16.04-30.58,23.03-32.47,2.41-.65,5.87.18,7.97,1.54,1.29.83,6.78,8.39,7.03,9.46Z"/>
    <path class="cls-2" d="M344.02,55c-6.08,13.58,2.42,29.03,13.08,37.41,4.13,3.25,8.81,4.93,12.92,7.58,6.59,4.27,13.79,8.22,20,13,6.25,4.81,12.47,11.35,18,17,3.13,3.2,6.53,8.42,10,12l-46,13c-11.15-7.4-21.4-10.75-34-14-24.73-6.37-46.15-5.58-70.52,2.98-22.57,7.94-78.38,39.44-64.66,69.68,5.63,12.42,17.17,14.51,29.17,10.33-1.51,8.75-14.08,11.7-16,20-23.36-6.49-42.41-17.9-52.18-41.32-19.25-46.12,23.42-81.49,59.16-101.19,37.39-20.61,79.69-35.86,121.02-46.48Z"/>
    <path class="cls-2" d="M605.02,27c-1.6,1.19-4.38,4.69-6,6-11.11,9-17.61,15.16-27,26-8.14,9.39-15.39,18.43-22,29-6.4,10.22-9.94,17.69-14,29-2.67,7.45-4.87,12.67-6,21-6.82-.45-13.71-.57-20.54-.96-1.3-.08-2.61-1.04-2.96-1.04h-34c-.35,0-1.66.96-2.96,1.04-6.5.38-13.06.15-19.54.96-2.38-9.47-8.57-22.11-13-31-4.05-8.13-7.86-14.52-13-22-4.5-6.54-8.7-12.08-14-18-5.98-6.68-17.05-18.25-25-22,32.32-5.32,64.81-10.27,97.51-12.99,37.02-3.08,74.12-2.74,111-5,3.81-.23,7.68.13,11.49-.01Z"/>
    <path class="cls-13" d="M404.02,421.97c7.08,2.98,16.47,12.13,23,17,31.16,23.23,49.86,37.84,91.26,23.76,16.09-5.47,22.1-12.97,34.74-21.76,2.23-1.55,6.91-4.79,9-6,27.24-15.74,48.35-15,67,11-10.51,17-24.22,32.2-40.1,44.39-4.07,3.12-12.27,9.49-16.57,11.45-2.04.93-3.19,1.75-5.33.15,2.94-5.12,7.08-14.4,9.47-20.03,1.05-2.47,7.39-19.16,6.53-19.96-18.91-.91-31.63,11.59-46.97,19.51-32,16.52-64.74,15.7-95.94-2.1-15.26-8.71-27.9-22.59-46.07-25.41-1.71,1.96,6.19,30.45,7.72,34.76,2.9,8.17,8.58,21.13,13.27,28.23-1.06,2.02-3.24.68-4.7.21-30.81-9.92-57.24-35.47-77.68-59.33-1.07-1.25-1.3-3.06-3.62-2.88,9.75-13.19,17.12-25.55,33.32-32.18,11.67-4.78,30.01-5.73,41.68-.82Z"/>
    <path class="cls-14" d="M629.02,445.97c7.06,9.84,12.7,20.51,19,31-2.25-.15-2.58,1.55-3.64,2.86-51.7,63.54-130.3,93.25-211.55,75.83-47.02-10.08-91.87-37.3-120.81-75.68,5.83-8.19,10.96-16.83,17-25,2.32-.18,2.55,1.63,3.62,2.88,20.44,23.86,46.86,49.41,77.68,59.33,1.46.47,3.64,1.81,4.7-.21,40.04,60.57,118.48,43.41,152-15,2.14,1.6,3.29.78,5.33-.15,4.29-1.96,12.5-8.33,16.57-11.45,15.89-12.19,29.59-27.39,40.1-44.39Z"/>
    <path class="cls-10" d="M665.02,505.96c3.04,4.96,5.93,10.07,9,15-60.24,67.74-150.17,99.57-240.19,84.68-13.14-2.17-25.76-6.25-38.81-8.68,1.01-11.71-2.93-23.44-16.67-17.17-1.79.82-9.99,6.91-11.33,8.17-33.11-14.96-62.51-37.34-87-64,3.84-4.67,9.13-11.89,13-17,19.72,21.7,42.41,41.12,68.33,55.17,93.42,50.63,208.69,34.96,285.2-38.14,6.24-5.96,11.23-13.8,18.47-18.03Z"/>
    <path class="cls-26" d="M648.02,476.97c3.17,5.28,5.85,10.83,9,16-60.45,75.06-162.78,104.79-254.52,73.01-39.89-13.82-73.94-38.36-101.48-70.01,3.74-5.22,7.24-10.73,11-16,28.94,38.38,73.8,65.6,120.81,75.68,81.24,17.43,159.85-12.29,211.55-75.83,1.07-1.31,1.39-3.01,3.64-2.86Z"/>
    <path class="cls-23" d="M665.02,505.96c-7.24,4.22-12.23,12.06-18.47,18.03-76.51,73.1-191.78,88.77-285.2,38.14-25.91-14.04-48.6-33.47-68.33-55.17,2.65-3.49,5.43-7.42,8-11,27.54,31.66,61.59,56.19,101.48,70.01,91.73,31.78,194.07,2.05,254.52-73.01,2.53,4.15,5.38,8.72,8,13Z"/>
    <path class="cls-16" d="M337.02,310.98c1.48,5.87,6.69,10.55,9.52,15.98,4.93,9.48,9.47,23.41,6.48,34.02-5.23-4.05-17-11.16-23-14,2.68-3.12-1.43-9.38-3.2-12.3-17.2-28.47-56.72-30.94-77.83-5.22-4.71,5.74-10.79,16-8.98,23.52-5.14,3.72-14.57,14.47-18,20-2.17.49-2.45-1.04-2.74-2.71-3.6-20.55,2.96-39.78,15.77-55.76,2.42-3.02,7.1-5.25,6.97-9.53,33.85-10.85,63.23-9.9,95,6Z"/>
    <path class="cls-5" d="M280.02,523.96c24.49,26.66,53.89,49.04,87,64-5.26,5.01-13.48,16.7-18,23l-48-27c-.25-1.07-5.75-8.63-7.03-9.46-2.1-1.35-5.55-2.19-7.97-1.54-6.15-10.56-20.09-16.3-25-28,6.01-7,13.55-14.37,19-21Z"/>
    <path class="cls-22" d="M343.02,190.99c9.2,4.88,13.19,10.07,20,17-27.45,11.88-58.8,27.24-81.46,47.03-1.58,1.38-3.39,2.6-3.54,4.97-10.81-3.76-21.96-6.07-33-9,.64-3,3.81-5.53,5.99-7.51,21.47-19.56,49.41-36.35,74.97-50.03,3.29-1.76,6.97-1.75,9.04-5.46,2.31.92,5.94,1.91,8,3Z"/>
    <path class="cls-18" d="M363.02,207.98c1.12,1.14,3.71,2.39,6,5,5.6,6.37,9.6,13.82,14,21-12.22,5.63-24.75,10.52-36.67,16.83-9.55,5.06-23.28,12.78-31.65,19.34-1.69,1.32-3.58,2.31-3.68,4.83-10.19-5.92-21.83-11.11-33-15,.15-2.36,1.96-3.59,3.54-4.97,22.67-19.79,54.01-35.15,81.46-47.03Z"/>
    <path class="cls-17" d="M335.02,187.99c-2.07,3.7-5.75,3.69-9.04,5.46-25.56,13.68-53.5,30.47-74.97,50.03-2.17,1.98-5.34,4.52-5.99,7.51-9.6-2.55-19.44-4.34-29-7,1.92-8.3,14.49-11.25,16-20,27.39-9.55,35.75-42.94,75-43,8.71-.01,19.93,3.79,28,7Z"/>
    <path class="cls-6" d="M211.02,398.97c-3.33,8.47-8.04,19.39-18.59,20.91-14.7,2.11-24.11-4.49-26.97-18.86-5.7-28.7,17.79-60.63,39.56-77.05-.57,7.48-3.7,14.13-4.84,21.66-2.29,15.08-.99,30.68,4.82,44.86,1.13,2.75,2.53,8.15,6.02,8.48Z"/>
    <path class="cls-6" d="M385.02,45c7.95,3.75,19.02,15.32,25,22-8.51,4.15-17.13,10.04-24.47,16.03-5.45,4.44-13.26,10.39-15.53,16.97-4.1-2.66-8.78-4.33-12.92-7.58-10.66-8.38-19.16-23.84-13.08-37.41.49-1.1,6.69-7.39,8.08-8.42,9.37-6.9,22.67-6.42,32.92-1.58Z"/>
    <path class="cls-8" d="M392.02,247.98c2.17,4.03,3.97,9.78,6,14-20.28,7.32-40.75,16.74-58.53,29.02-1.25.86-2.96.76-2.47,2.98-7.55-6.95-17.11-13.84-26-19,.1-2.51,1.99-3.5,3.68-4.83,8.37-6.56,22.1-14.29,31.65-19.34,11.92-6.31,24.45-11.19,36.67-16.83,2.66,4.34,6.75,9.81,9,14Z"/>
    <path class="cls-25" d="M286.02,572.96c-6.99,1.89-17.39,25.61-23.03,32.47-2.61,3.18-5.91,5.82-8.97,8.53-9.32-8.41-19.99-16.56-27-27,10.06-17.8,21.12-27,34-42,4.91,11.7,18.85,17.43,25,28Z"/>
    <path class="cls-6" d="M108.02,322.98c-6.98,10.43-12.66,21.67-25.31,26.19s-27.05-1.28-28.69-15.68c-2.28-19.96,10.9-33.05,24-45.5,2.87,8.06,9.72,16.62,15.49,23.01,3.62,4.02,9.36,10.77,14.51,11.98Z"/>
    <path class="cls-26" d="M240.02,352.97c-1.82-7.52,4.27-17.78,8.98-23.52,21.11-25.72,60.62-23.25,77.83,5.22,1.76,2.92,5.88,9.18,3.2,12.3-27.48-12.98-64.9-12.19-90,6Z"/>
    <path class="cls-24" d="M414.02,298.98c2.66,7.29,4.63,14.65,7,22-7.17,1.26-15.01,4.75-21.68,7.82-7.65,3.53-15.07,9.71-23.32,10.18-.99-1.03-2.94-1.97-4-3-1.83-1.78-4.11-4.39-6-6l-10-16c15.99-11.93,34.91-18.95,53-27,1.6,4.01,3.5,7.9,5,12Z"/>
    <path class="cls-12" d="M398.02,261.98c4.26,8.86,7.34,15.8,11,25-18.09,8.04-37.01,15.06-53,27-6.85-6.04-12.31-13.84-19-20-.49-2.22,1.22-2.12,2.47-2.98,17.78-12.28,38.25-21.69,58.53-29.02Z"/>
    <path class="cls-5" d="M242.02,304.98c.13,4.28-4.55,6.51-6.97,9.53-12.81,15.98-19.38,35.21-15.77,55.76.29,1.67.58,3.2,2.74,2.71-5.02,8.09-7.56,17.24-11,26-3.49-.33-4.9-5.72-6.02-8.48-5.81-14.19-7.11-29.78-4.82-44.86,1.14-7.52,4.27-14.18,4.84-21.66,11.59-8.74,23.17-14.57,37-19Z"/>
    <path class="cls-6" d="M182.02,572.96c.12,14.96-.6,38.96-21.34,37.92-21.82-1.1-21.84-26.12-20.7-42.5.09-1.31,1.02-2.22,1.04-2.42,13.37,3.78,27.08,6.23,41,7Z"/>
    <path class="cls-14" d="M182.02,525.96c-10.61-.5-20.86-3.07-31-6,4.02-13,11.69-37.32,24.68-43.81,6.56-3.28,13.08-2.96,14.38,5.33-1.81,14.84-6.47,29.66-8.06,44.48Z"/>
    <path class="cls-11" d="M441.02,392.97c-13.42,6.08-26.01,13.48-38,22-1.09-4.43-3.37-9.28-4-14,13.59-.81,6.85-20.59,3-28l30-14c3.19,11.3,5.92,22.7,9,34Z"/>
    <path class="cls-1" d="M451.02,424.97l-24,14c-6.53-4.87-15.92-14.02-23-17-.6-2.14-.51-5.02-1-7,11.99-8.52,24.58-15.92,38-22,.16.57,1.17,1.63,1.53,2.93,1.79,6.56,4.94,24.59,8.47,29.07Z"/>
    <path class="cls-6" d="M376.02,338.98c7.32,7.64,21.27,24.89,26,34,3.85,7.41,10.59,27.19-3,28-10.46.62-19.95-14.36-27.03-21.51-.77-.77-.77-2.29-.97-2.49.96-.59,1.62-1.54,1.8-2.67.25-1.56,1.2-6.98,1.2-7.83v-15l-2-15.5c1.06,1.03,3.01,1.97,4,3Z"/>
    <path class="cls-21" d="M96.02,273.98c5.46,8.19,10.62,16.88,17.49,24.01,2.05,2.12,4.2,5.32,7.51,4.99-5.06,6.43-8.78,13.69-13,20-5.15-1.21-10.9-7.97-14.51-11.98-5.76-6.4-12.62-14.96-15.49-23.01,7.11-6.75,10.75-8.76,18-14Z"/>
    <path class="cls-5" d="M366.02,329.98c1.89,1.61,4.17,4.22,6,6l2,15.5v15c0,.85-.95,6.28-1.2,7.83-.18,1.12-.84,2.08-1.8,2.67-3.65-3.7-13.72-12.69-18-16,2.99-10.6-1.55-24.54-6.48-34.02-2.83-5.43-8.04-10.11-9.52-15.98,11.31,5.66,19.43,10.82,29,19Z"/>
    <path class="cls-14" d="M136.02,285.98c-7.92-6.82-16.72-15.44-19-26,8.38-4.33,17.1-9.52,26.76-10.74,13.99-1.78,20.56,5.07,12.89,17.89-4.73,7.9-14.45,12.85-20.64,18.85Z"/>
    <path class="cls-21" d="M181.02,549.96c-.08,7.89.94,15.59,1,23-13.92-.77-27.63-3.22-41-7,.82-8.77,2.23-13.78,4-22,11.92,2.32,23.65,6.17,36,6Z"/>
    <path class="cls-23" d="M117.02,259.98c2.28,10.56,11.08,19.18,19,26-4.57,4.43-11.14,12.1-15,17-3.32.33-5.47-2.86-7.51-4.99-6.87-7.13-12.03-15.82-17.49-24.01,8.05-5.82,11.15-8.91,21-14Z"/>
    <path class="cls-23" d="M182.02,525.96c-.78,7.27-.92,16.58-1,24-12.35.17-24.08-3.68-36-6,1.9-8.81,3.29-15.23,6-24,10.14,2.93,20.39,5.5,31,6Z"/>
    <path class="cls-9" d="M254.02,613.96c-7.67,6.77-17.94,15.31-28.9,10.39-.88-.39-5.95-4.05-6.1-4.39-3.15-6.97.84-19.86,3.83-26.67,1.3-2.97,3.1-4.44,4.17-6.33,7.01,10.44,17.68,18.59,27,27Z"/>
    <path class="cls-2" d="M789.02,195.99c-5.13-13.88-28.07-35.82-40.47-44.02-28.48-18.84-68.83-23.81-101.53-15.97-15.96,3.83-29.95,9.37-44,18l-50-13c2.95-5.2,5.51-11.12,9-16,4.85-6.78,14.23-17.8,20-24,6.56-7.05,18.43-18.23,26-24,9.12-6.95,20.73-14.2,31-19,16.11-7.53,47.3-11.49,54-28,16.62.35,33.77,2.43,50.19,5.31,31.48,5.53,71.87,16.6,88.98,46.01,27.23,46.8-4.45,89.31-43.17,114.66Z"/>
    <path class="cls-19" d="M789.02,195.99c6.59,17.84-.24,39.84-22.38,37.9-5.14-.45-14.68-5.56-18.62-8.9-5.21-4.42-9.76-12.73-14.49-18.01-18.64-20.82-43.49-30.23-71.51-25.98l-15-45c32.7-7.84,73.05-2.87,101.53,15.97,12.41,8.21,35.35,30.15,40.47,44.02Z"/>
    <path class="cls-21" d="M691.02,547.96l-4.02,2.48-17.98,18.52c-3.54-4.69-13.42-15.75-19.41-14.98-13.44,1.72-7.6,26.5-5.59,34.98l-56,30c-5.1-9.77-8.95-16.02-21.26-13.76-6.49,1.19-9.69,8.24-11.74,13.76-12.7,1.4-24.97,5.17-37.64,6.86-42.71,5.68-86.29,1.65-127.36-10.86,1.7-4.01,4.64-13.8,5-18,13.05,2.43,25.68,6.51,38.81,8.68,90.01,14.89,179.95-16.94,240.19-84.68,5.54,8.89,11.3,18.22,17,27Z"/>
    <path class="cls-16" d="M730.02,277.98c.24,5.15,7.7,8.15,11.04,11.46,12.94,12.85,23.44,37.79,21.98,56.06-.14,1.77-.34,3.44-2.02,4.47-5.81-7.82-15.32-17.48-24-22,1.45-6.05-4.72-14.5-8.49-19.01-28.77-34.51-85.42-20.02-92.51,24.01-6.37,3.28-12.37,6.59-18,11-2.75-12.93,3.54-29.05,10.59-39.91,3.21-4.95,7.82-8.87,10.41-14.09,1.07-.48,2.97-2.59,4-3,7.36-2.91,22.37-7.54,30-9,1.82-.35,5.04-.73,7-1s8.19-1,9.5-1h29c1.74,0,9.01,1.53,11.5,2Z"/>
    <path class="cls-6" d="M778.02,376.97c9.21-16.92,8.78-41.03,3.92-59.42-1.77-6.68-5.26-12.81-5.92-19.58,18.38,12.68,41.25,35.61,46.51,57.99,3.48,14.81,1.21,29.18-15.3,33.71-12.7,3.48-21.69-3.17-29.21-12.7Z"/>
    <path class="cls-4" d="M715.02,248.98c-7.02,5.14-14.08,10.69-21,16,.4-2.98-1.69-4.26-3.54-5.97-13.91-12.84-42.69-28.65-60.11-36.89-3.77-1.78-21.82-10.21-24.36-10.14.27-1.27,1.08-3.16,2-4,5.15-4.66,15.78-11.44,22-15-.11,2.38,1.42,2.59,2.96,3.54,8.05,4.93,18.26,8.61,26.71,13.29,19.32,10.7,39.74,23.5,55.33,39.17Z"/>
    <path class="cls-18" d="M606.02,211.98c2.54-.07,20.59,8.36,24.36,10.14,17.41,8.24,46.2,24.05,60.11,36.89,1.85,1.71,3.93,2.98,3.54,5.97-4.84,3.71-9.7,7.66-14,12-1.96.27-5.18.65-7,1-5.83-6.27-14.16-11.4-21.48-16.02-19.8-12.51-41.14-22.94-63.52-29.98.25-.31.25-1.59.97-2.49,2.63-3.25,14.05-17.43,17.03-17.51Z"/>
    <path class="cls-26" d="M737.02,327.98c-33.98-17.7-68.46-11.74-101,5,7.09-44.03,63.74-58.52,92.51-24.01,3.76,4.51,9.94,12.96,8.49,19.01Z"/>
    <path class="cls-20" d="M770.02,687.95c-2.52,1.33-10.45,2.28-13.42,1.91-17.55-2.17-28-19.81-36.58-32.91,10.76-8.69,22.36-17.28,31-28,8.78,10.08,21.85,18.14,24.55,32.95,1.16,6.37,1.08,22.54-5.55,26.05Z"/>
    <path class="cls-22" d="M656.02,182.99c-.47,2.14,1.15,2.17,2.45,3,24.18,15.39,48.76,26.55,70.56,46.48,1.38,1.27,2.9,2.41,2.99,4.52-5.61,4.02-11.46,7.94-17,12-15.59-15.67-36.01-28.47-55.33-39.17-8.45-4.68-18.66-8.36-26.71-13.29-1.54-.95-3.08-1.16-2.96-3.54,9.73-5.57,15.05-7.5,26-10Z"/>
    <path class="cls-6" d="M851.02,521.96c.22.94,1.22,2.25,1.55,3.92,3.48,17.39,10.38,68.95-21.58,60.61-16.08-4.2-13.1-40.78-13.97-53.53,12.3-.02,22.94-6.75,34-11Z"/>
    <path class="cls-25" d="M691.02,547.96c10.66,16.44,23.14,35.58,35,51l-26,23c-9.25-16.17-19.95-38.35-31-53l17.98-18.52,4.02-2.48Z"/>
    <path class="cls-5" d="M776.02,297.98c.66,6.77,4.15,12.9,5.92,19.58,4.86,18.39,5.29,42.49-3.92,59.42-6.54-8.29-10.7-18.53-17-27,1.68-1.04,1.88-2.71,2.02-4.47,1.47-18.27-9.04-43.21-21.98-56.06-3.34-3.31-10.8-6.31-11.04-11.46,17.27,3.27,31.7,10.13,46,20Z"/>
    <path class="cls-17" d="M748.02,224.98c-4.05,5.23-10.67,8.18-16,12-.09-2.11-1.6-3.25-2.99-4.52-21.81-19.94-46.38-31.1-70.56-46.48-1.3-.83-2.92-.85-2.45-3,1.68-.38,3.61-1.64,6-2,28.03-4.25,52.88,5.16,71.51,25.98,4.73,5.28,9.28,13.59,14.49,18.01Z"/>
    <path class="cls-6" d="M591.02,370.97c.08,1-.1,2.01-.56,2.9-6.38,9.51-14.65,19.72-19.44,30.09l-1,1c-.12.28.11.71,0,1-16.02,9.91-21.22,1.26-18-15,2.11-10.68,9.59-26.38,15-36,5.18-9.21,11.7-18.41,19-26,2.39,6.6.45,16.99,1.01,24.49.45,5.92,3.62,13.2,3.99,17.51Z"/>
    <path class="cls-1" d="M552.02,390.97c-3.22,16.26,1.98,24.91,18,15-3.59,9.18-5.48,19.47-8,29-2.09,1.21-6.77,4.45-9,6-9.36-8.42-21.72-15.09-34-18,3.63-7.92,6.04-30,8-40l25,8Z"/>
    <path class="cls-9" d="M751.02,628.95c-8.64,10.72-20.24,19.31-31,28-7.99-12.19-13-22.76-20-35l26-23c7.73,10.05,16.72,20.49,25,30Z"/>
    <path class="cls-6" d="M900.02,301.98c.17.18,1.94.2,3.01,1.45,27.23,32.02,2.97,64.65-29.29,35.55-.89-.8-.64-1.93-.72-2,10.57-10.47,18.83-22.65,27-35Z"/>
    <path class="cls-14" d="M862.02,272.98c-2.77,10.61-9.99,20.8-18,28-6.11-7.2-25.07-23.7-26.77-31.72-4.02-18.98,16.94-10.1,26.13-6.13,6.39,2.76,12.55,6.51,18.64,9.86Z"/>
    <path class="cls-16" d="M884.02,286.98c-5.2,11.1-12.56,22.57-20.96,31.54-1.15,1.22-2.2,2.41-4.04,2.46-5.13-6.52-9.63-13.67-15-20,8.01-7.2,15.23-17.39,18-28,8.61,4.73,14.03,7.95,22,14Z"/>
    <path class="cls-5" d="M900.02,301.98c-8.17,12.35-16.43,24.53-27,35-5.71-5.52-8.88-9.49-14-16,1.84-.05,2.89-1.23,4.04-2.46,8.4-8.97,15.76-20.45,20.96-31.54,7.79,5.92,9.77,8.29,16,15Z"/>
    <path class="cls-23" d="M844.02,496.96c-9.63,3.69-18.15,10.99-29,11-.52-8.86-4.15-31.2-.41-37.91,2.38-4.27,5.95-4.81,10.45-3.61,9.01,2.4,16.05,22.38,18.97,30.52Z"/>
    <path class="cls-21" d="M639.02,289.98c-2.59,5.21-7.2,9.14-10.41,14.09-7.04,10.86-13.34,26.98-10.59,39.91-3.71,2.91-9.64,8.51-13,12-2.47.56-2.69-1.89-2.9-3.57-1.91-15.41,2.14-29.79,5.9-44.42,1.45-1.13,3.13-3.37,4-4,8.29-5.98,17.76-9.88,27-14Z"/>
    <path class="cls-5" d="M844.02,496.96c2.94,8.21,5.02,16.5,7,25-11.06,4.25-21.7,10.97-34,11-.55-8.15-1.51-16.7-2-25,10.85-.01,19.37-7.31,29-11Z"/>
    <path class="cls-5" d="M608.02,307.98c-3.76,14.63-7.81,29.02-5.9,44.42.21,1.68.43,4.13,2.9,3.57-4.72,4.9-8.2,11.13-14,15-.36-4.31-3.54-11.59-3.99-17.51-.57-7.5,1.38-17.88-1.01-24.49-.17-.48.12-1.38,0-2,4.17-1.47,5.8-5.48,8.99-8.51,3.85-3.66,8.82-7.2,13.01-10.49Z"/>
    <path class="cls-1" d="M570.02,404.97l1-1c-.2.44-.9.75-1,1Z"/>
    <path class="cls-20" d="M685.02,685.95c13.4,24.34,29.72,46.52,43.17,70.32,12.06,21.33,35.61,66.43-5.8,70.54-20.84,2.07-32.09-9.17-42.79-24.96-18.52-27.34-31.96-59.33-46.58-88.91l52-27Z"/>
    <path class="cls-25" d="M644.02,588.96c4.82,20.31,13.24,41.08,22,60l-51,26c-8.85-18.16-17.81-38.37-27-56l56-30Z"/>
    <path class="cls-25" d="M550.02,637.95c-5.28,18.12-11.73,37.22-26.99,49.51-11.56,9.32-33.31,12.36-42.21-1.82-2.01-3.21-5.14-12.05-5.81-15.69-1.41-7.78.26-16.62-3-24,26.33,1.13,52.23-3.52,78-8Z"/>
    <path class="cls-5" d="M555.02,618.95c-2.26,6.09-3.18,12.77-5,19-25.77,4.48-51.67,9.13-78,8-6.8-15.39-27.04-7.64-37,0,.56-2.52-1.27-2.11-2.95-2.5-17.07-3.93-34.58-6.16-51.05-12.5,2.47-3.78,7.33-12.04,9-16,41.07,12.5,84.65,16.54,127.36,10.86,12.67-1.69,24.94-5.45,37.64-6.86Z"/>
    <path class="cls-9" d="M666.02,648.95c5.79,12.5,12.36,24.94,19,37l-52,27c-6.21-12.56-11.89-25.47-18-38l51-26Z"/>
    <path class="cls-5" d="M639.02,58c-10.27,4.8-21.88,12.04-31,19-9.38-9.09-23.93-13.37-36-18,9.39-10.84,15.89-17,27-26,10.37,5.36,21.13,10.13,30.92,16.58,3.23,2.13,8.28,4.39,9.08,8.42Z"/>
    <path class="cls-20" d="M313.02,705.95l50,19c-21.43,23.04-67.59,76.56-99.46,79.03-15.79,1.22-28.21-6.9-22.82-23.81,7.99-25.05,52.76-56.08,72.28-74.22Z"/>
    <path class="cls-25" d="M381.02,630.95c16.46,6.34,33.97,8.57,51.05,12.5,1.68.39,3.51-.02,2.95,2.5-13.51,10.37-30.07,31.71-42,45l-48-17c10.86-11.48,27.46-29.93,36-43Z"/>
    <path class="cls-25" d="M349.02,610.96c-11.4,15.89-20.24,30.61-33,46l-43-28c9.86-9.14,25.98-20.23,27.92-34.58.29-2.11.51-8.6.08-10.42l48,27Z"/>
    <path class="cls-9" d="M393.02,690.95c-9.94,11.08-19.65,22.87-30,34l-50-19c10.4-9.66,22-21.42,32-32l48,17Z"/>
    <path class="cls-9" d="M316.02,656.95c-8.92,10.75-16.82,19.4-27,29l-45-28c8.89-11.69,18.42-19.19,29-29l43,28Z"/>
    <path class="cls-20" d="M289.02,685.95c-10.28,9.69-18.51,20.13-34.54,19.04-17.78-1.21-24-22.15-17.65-36.73,1.76-4.05,4.6-6.9,7.19-10.31l45,28Z"/>
    <path class="cls-6" d="M338.02,140.99c-9.05,10.06-18.51,20.06-26.41,31.08-1.84,2.57-4.48,5.61-4.59,8.91-39.25.05-47.61,33.44-75,43-12,4.18-23.54,2.09-29.17-10.33-13.72-30.24,42.09-61.75,64.66-69.68,24.37-8.57,45.78-9.36,70.52-2.98Z"/>
    <path class="cls-22" d="M530.02,137.99c-.84,6.22-2.73,13.5,4.08,17.41,10.78,6.18,15-7.5,18.92-14.41l50,13c-4.15,2.55-7.26,5.98-10,8-7.55,5.57-14.46,10.19-21,17-15.05-3.04-30.19-6.36-45.51-7.99-34.59-3.68-93.86-2.23-126.49,9.99-.3.11-.72-.12-1,0-6.32-10.2-16.32-17.25-26-24-.38-.27-.63-1.75-1-2l46-13c4.58,4.72,17.02,17.58,22.72,18.77,15.28,3.19,11.74-12.99,9.28-22.77,6.48-.82,13.04-.58,19.54-.96,1.3-.08,2.61-1.04,2.96-1.04h34c.35,0,1.66.96,2.96,1.04,6.83.4,13.72.51,20.54.96Z"/>
    <path class="cls-5" d="M372.02,154.99c.37.25.62,1.73,1,2-1.96-.02-2.78,1.35-4.02,2.48-7.58,6.97-16.09,16.44-22.38,24.62-1.56,2.03-3.83,4.1-3.6,6.9-2.06-1.09-5.69-2.08-8-3-8.07-3.21-19.29-7.01-28-7,.11-3.3,2.75-6.35,4.59-8.91,7.91-11.03,17.36-21.02,26.41-31.08,12.6,3.25,22.85,6.59,34,14Z"/>
    <path class="cls-14" d="M437.02,106.99c4.43,8.89,10.62,21.52,13,31s6,25.96-9.28,22.77c-5.71-1.19-18.14-14.04-22.72-18.77-3.47-3.58-6.87-8.8-10-12,6.28-10.5,18.13-17.83,29-23Z"/>
    <path class="cls-21" d="M410.02,67c5.3,5.92,9.5,11.46,14,18-11.56,8.76-26.37,15.08-34,28-6.21-4.77-13.41-8.73-20-13,2.27-6.58,10.08-12.53,15.53-16.97,7.34-5.99,15.97-11.88,24.47-16.03Z"/>
    <path class="cls-23" d="M437.02,106.99c-10.87,5.17-22.72,12.5-29,23-5.53-5.65-11.75-12.19-18-17,7.63-12.92,22.44-19.24,34-28,5.14,7.48,8.95,13.87,13,22Z"/>
    <path class="cls-10" d="M608.02,76.99c-7.57,5.77-19.44,16.95-26,24-.15-3.23-4.58-4.34-7.03-5.47-7.73-3.55-16.62-5.95-24.97-7.53,6.61-10.57,13.86-19.6,22-29,12.07,4.63,26.62,8.91,36,18Z"/>
    <path class="cls-23" d="M582.02,100.99c-5.77,6.2-15.15,17.22-20,24-7.42-5.57-17.45-5.57-26-8,4.06-11.31,7.6-18.78,14-29,8.35,1.58,17.23,3.98,24.97,7.53,2.45,1.13,6.89,2.23,7.03,5.47Z"/>
    <path class="cls-26" d="M562.02,124.99c-3.49,4.88-6.05,10.79-9,16-3.91,6.9-8.14,20.59-18.92,14.41-6.81-3.91-4.93-11.19-4.08-17.41,1.13-8.33,3.33-13.55,6-21,8.55,2.43,18.58,2.43,26,8Z"/>
    <path class="cls-15" d="M415.02,516.96c-4.69-7.1-10.37-20.06-13.27-28.23-1.53-4.31-9.43-32.81-7.72-34.76,18.17,2.82,30.82,16.71,46.07,25.41,31.2,17.8,63.94,18.62,95.94,2.1,15.35-7.92,28.07-20.42,46.97-19.51.86.8-5.48,17.49-6.53,19.96-2.39,5.63-6.53,14.91-9.47,20.03-33.52,58.41-111.96,75.56-152,15Z"/>
    <path class="cls-7" d="M495.02,397.97c-.26,13.05-3.31,34.14,16.45,30.94,2.72-.44,6.45-3.54,7.55-5.94,12.28,2.91,24.64,9.58,34,18-12.64,8.78-18.65,16.28-34.74,21.76-41.4,14.08-60.1-.52-91.26-23.76l24-14c1.9,2.41,7.41,4.14,10.5,4.08,15.81-.3,12.66-19.58,11.5-30.08l22-1Z"/>
    <path class="cls-10" d="M373.02,156.99c9.68,6.75,19.68,13.8,26,24-9.71,4.05-22.68,23.87-30,32-2.29-2.61-4.88-3.86-6-5-6.81-6.92-10.8-12.12-20-17-.23-2.79,2.04-4.86,3.6-6.9,6.29-8.18,14.8-17.65,22.38-24.62,1.23-1.13,2.06-2.5,4.02-2.48Z"/>
    <path class="cls-23" d="M400.02,180.99c5.88,8.19,11.88,16.28,17,25,1.49,2.54,2.61,5.39,4,8-1.96-.02-2.78,1.35-4.02,2.48-9.75,8.97-18.13,20.17-24.98,31.52-2.25-4.18-6.34-9.65-9-14-4.4-7.18-8.4-14.63-14-21,7.32-8.12,20.29-27.94,30-32,.28-.12.7.11,1,0Z"/>
    <path class="cls-14" d="M421.02,213.98c2.53,4.74,4.75,9.11,7,14,2.74,5.95,5.59,11.89,8,18,1.8,4.58,3.36,9.36,5,14-2.22.07-3.18,1.57-4.42,3.08-7.89,9.69-13.88,22.32-19.76,33.28-.75,1.4-.39,3.16-2.82,2.63-1.5-4.1-3.4-7.99-5-12-3.66-9.19-6.74-16.14-11-25-2.03-4.22-3.83-9.96-6-14,6.85-11.35,15.23-22.55,24.98-31.52,1.23-1.13,2.06-2.5,4.02-2.48Z"/>
    <path class="cls-13" d="M441.02,259.98c.82,2.32,2.42,5.27,3,7,3.45,10.33,6.19,21.44,9,32,4.11,15.47,7.89,31.29,11,47,3.31,16.71,7.15,36.19,9,53,1.15,10.49,4.3,29.78-11.5,30.08-3.09.06-8.6-1.67-10.5-4.08-3.53-4.48-6.68-22.51-8.47-29.07-.36-1.3-1.37-2.36-1.53-2.93-3.08-11.3-5.81-22.7-9-34-3.67-13-6.82-25.01-11-38-2.37-7.35-4.34-14.71-7-22,2.43.53,2.07-1.24,2.82-2.63,5.89-10.96,11.87-23.59,19.76-33.28,1.23-1.52,2.2-3.02,4.42-3.08Z"/>
    <path class="cls-3" d="M421.02,320.98c4.18,12.99,7.33,24.99,11,38l-30,14c-4.73-9.11-18.68-26.36-26-34,8.26-.46,15.67-6.64,23.32-10.18,6.66-3.08,14.51-6.56,21.68-7.82Z"/>
    <path class="cls-10" d="M647.02,135.99l15,45c-2.39.36-4.32,1.62-6,2-10.95,2.5-16.27,4.43-26,10-6.22,3.56-16.85,10.34-22,15l-15-46c2.74-2.02,5.85-5.45,10-8,14.05-8.63,28.04-14.17,44-18Z"/>
    <path class="cls-8" d="M673.02,277.98c-7.63,1.46-22.64,6.09-30,9-21.4-14.9-45.52-25.22-70-34,.74-1.17,1.26-3.88,2-5,3.72-5.62,8.84-10.72,13-16,22.38,7.04,43.72,17.47,63.52,29.98,7.32,4.62,15.64,9.75,21.48,16.02Z"/>
    <path class="cls-12" d="M643.02,286.98c-1.03.41-2.93,2.52-4,3-9.24,4.12-18.71,8.02-27,14,.11-2.37-1.42-2.59-2.96-3.54-14.89-9.12-34.28-15.66-51.04-20.46,4.97-10.29,8.94-17.39,15-27,24.48,8.78,48.6,19.1,70,34Z"/>
    <path class="cls-26" d="M593.02,161.99l15,46c-.92.84-1.73,2.73-2,4-2.98.09-14.39,14.26-17.03,17.51-.73.9-.73,2.17-.97,2.49-4.16,5.28-9.28,10.38-13,16-1.7-7.21-2.1-14.72-3.48-22.02-1.19-6.31-2.81-13.24-4.6-19.4-1.26-4.33-2.43-10.7-5.92-13.58,3.53-4.58,6.81-9.64,11-14,6.54-6.81,13.45-11.43,21-17Z"/>
    <path class="cls-3" d="M586.02,326.98c.12.62-.17,1.52,0,2-7.3,7.59-13.82,16.79-19,26l-32-10c2.82-11.24,5.14-21.94,9-33l42,15Z"/>
    <path class="cls-11" d="M567.02,354.97c-5.41,9.62-12.89,25.32-15,36l-25-8c2.54-12.93,4.79-25.2,8-38l32,10Z"/>
    <path class="cls-14" d="M575.02,247.98c-.74,1.11-1.26,3.83-2,5-6.06,9.61-10.03,16.71-15,27s-10.15,20.96-14,32-6.18,21.76-9,33c-3.21,12.8-5.46,25.06-8,38-1.96,10-4.37,32.07-8,40-1.1,2.4-4.83,5.5-7.55,5.94-19.75,3.21-16.71-17.88-16.45-30.94.36-17.63,2.47-36.55,5-54,2.35-16.22,5.41-30.31,10-46,3.24-11.07,6.82-22.26,11-33,2.8-7.19,5.8-15.18,9-22,2.47-5.28,6.16-11.73,9-17,3.93-7.28,8.41-15.13,13-22,2.65-3.97,6.14-7.3,9-11,3.49,2.88,4.66,9.25,5.92,13.58,1.79,6.16,3.41,13.09,4.6,19.4,1.38,7.3,1.78,14.81,3.48,22.02Z"/>
    <path class="cls-24" d="M612.02,303.98c-.87.63-2.55,2.87-4,4-4.2,3.29-9.16,6.83-13.01,10.49-3.19,3.03-4.82,7.04-8.99,8.51l-42-15c3.85-11.04,8.96-21.56,14-32,16.76,4.8,36.15,11.34,51.04,20.46,1.54.95,3.08,1.16,2.96,3.54Z"/>
    <path class="cls-4" d="M572.02,178.99c-4.19,4.36-7.47,9.42-11,14-2.86,3.7-6.35,7.03-9,11-44.43-8.9-90.85-8.1-135,2-5.12-8.71-11.12-16.81-17-25,32.63-12.22,91.9-13.67,126.49-9.99,15.32,1.63,30.46,4.94,45.51,7.99Z"/>
    <path class="cls-11" d="M500.02,343.97c-2.53,17.44-4.64,36.37-5,54l-22,1c-1.85-16.8-5.69-36.28-9-53,11.9-1.87,23.95-2.27,36-2Z"/>
    <path class="cls-18" d="M552.02,203.99c-4.59,6.87-9.07,14.72-13,22-36.96-6.12-74.3-5.12-111,2-2.25-4.89-4.47-9.26-7-14-1.39-2.61-2.51-5.46-4-8,44.15-10.1,90.57-10.9,135-2Z"/>
    <path class="cls-12" d="M530.02,242.98c-3.2,6.82-6.2,14.81-9,22-25.97-2.81-51.2-1.74-77,2-.58-1.73-2.18-4.68-3-7-1.64-4.64-3.2-9.42-5-14,30.88-6.79,62.67-5.64,94-3Z"/>
    <path class="cls-8" d="M539.02,225.98c-2.84,5.27-6.53,11.72-9,17-31.33-2.64-63.12-3.79-94,3-2.41-6.1-5.26-12.05-8-18,36.7-7.12,74.04-8.11,111-2Z"/>
    <path class="cls-24" d="M521.02,264.98c-4.18,10.74-7.76,21.93-11,33-18.83-2.61-38.12-.42-57,1-2.81-10.55-5.55-21.66-9-32,25.8-3.74,51.03-4.81,77-2Z"/>
    <path class="cls-3" d="M510.02,297.98c-4.59,15.69-7.65,29.78-10,46-12.05-.27-24.1.13-36,2-3.11-15.7-6.89-31.53-11-47,18.88-1.42,38.17-3.61,57-1Z"/>
  </g>
</svg>